# xmcd
#
# Track frame offsets: 
#        150
#        16364
#        32523
#        48877
#        67829
#        84251
#
# Disc length: 1318 seconds
#
# Revision: 0
# Processed by: cddbd v1.5.2PL0 Copyright (c) Steve Scherf et al.
# Submitted via: ExactAudioCopy v1.0b1
#
DISCID=37052406
DTITLE=Craig Monday  - Nashville Hit Songwriters Series
DYEAR=2010
DGENRE=Country
TTITLE0=Come Out Virginia
TTITLE1=Harlan County
TTITLE2=A Little Crazy Last Night
TTITLE3=Memphis (Ain't no Place to Lose the Blues)
TTITLE4=Amanda
TTITLE5=Lead Me Home
EXTD=
EXTT0=
EXTT1=
EXTT2=
EXTT3=
EXTT4=
EXTT5=
PLAYORDER=
